<svg id="visual" viewBox="0 0 900 600" width="900" height="600" xmlns="http://www.w3.org/2000/svg" xmlns:xlink="http://www.w3.org/1999/xlink" version="1.1"><g stroke-width="1" stroke-linejoin="bevel"><path d="M493 315L461 360L562 368Z" fill="#a7936d" stroke="#a7936d"></path><path d="M562 368L584 330L493 315Z" fill="#a7936d" stroke="#a7936d"></path><path d="M461 360L495 475L562 368Z" fill="#c5b497" stroke="#c5b497"></path><path d="M390 264L396 368L461 360Z" fill="#c5b497" stroke="#c5b497"></path><path d="M461 360L408 490L495 475Z" fill="#e1d6c2" stroke="#e1d6c2"></path><path d="M495 200L390 264L493 315Z" fill="#a7936d" stroke="#a7936d"></path><path d="M493 315L390 264L461 360Z" fill="#e1d6c2" stroke="#e1d6c2"></path><path d="M606 499L665 401L562 368Z" fill="#9e8960" stroke="#9e8960"></path><path d="M562 368L665 401L584 330Z" fill="#a7936d" stroke="#a7936d"></path><path d="M722 327L572 214L584 330Z" fill="#ebe1d1" stroke="#ebe1d1"></path><path d="M584 330L572 214L493 315Z" fill="#8a7445" stroke="#8a7445"></path><path d="M572 214L495 200L493 315Z" fill="#a7936d" stroke="#a7936d"></path><path d="M396 368L408 490L461 360Z" fill="#ebe1d1" stroke="#ebe1d1"></path><path d="M662 534L606 499L627 600Z" fill="#cebfa5" stroke="#cebfa5"></path><path d="M495 475L606 499L562 368Z" fill="#ebe1d1" stroke="#ebe1d1"></path><path d="M495 200L367 215L390 264Z" fill="#bba989" stroke="#bba989"></path><path d="M390 264L273 292L396 368Z" fill="#8a7445" stroke="#8a7445"></path><path d="M396 368L266 422L408 490Z" fill="#8a7445" stroke="#8a7445"></path><path d="M790 411L722 327L665 401Z" fill="#cebfa5" stroke="#cebfa5"></path><path d="M665 401L722 327L584 330Z" fill="#cebfa5" stroke="#cebfa5"></path><path d="M531 600L606 499L495 475Z" fill="#a7936d" stroke="#a7936d"></path><path d="M606 499L662 534L665 401Z" fill="#cebfa5" stroke="#cebfa5"></path><path d="M417 600L531 600L495 475Z" fill="#b19e7b" stroke="#b19e7b"></path><path d="M400 96L335 198L367 215Z" fill="#ebe1d1" stroke="#ebe1d1"></path><path d="M367 215L273 292L390 264Z" fill="#a7936d" stroke="#a7936d"></path><path d="M572 214L505 121L495 200Z" fill="#cebfa5" stroke="#cebfa5"></path><path d="M495 200L400 96L367 215Z" fill="#947e52" stroke="#947e52"></path><path d="M591 103L505 121L572 214Z" fill="#ebe1d1" stroke="#ebe1d1"></path><path d="M335 198L273 292L367 215Z" fill="#c5b497" stroke="#c5b497"></path><path d="M273 292L266 422L396 368Z" fill="#ebe1d1" stroke="#ebe1d1"></path><path d="M408 490L417 600L495 475Z" fill="#cebfa5" stroke="#cebfa5"></path><path d="M292 600L417 600L408 490Z" fill="#8a7445" stroke="#8a7445"></path><path d="M722 327L683 161L572 214Z" fill="#9e8960" stroke="#9e8960"></path><path d="M531 600L627 600L606 499Z" fill="#e1d6c2" stroke="#e1d6c2"></path><path d="M266 422L274 484L408 490Z" fill="#d8cab4" stroke="#d8cab4"></path><path d="M683 161L591 103L572 214Z" fill="#947e52" stroke="#947e52"></path><path d="M769 507L790 411L665 401Z" fill="#c5b497" stroke="#c5b497"></path><path d="M722 327L782 184L683 161Z" fill="#ebe1d1" stroke="#ebe1d1"></path><path d="M769 507L665 401L662 534Z" fill="#bba989" stroke="#bba989"></path><path d="M505 121L400 96L495 200Z" fill="#c5b497" stroke="#c5b497"></path><path d="M222 139L225 291L273 292Z" fill="#d8cab4" stroke="#d8cab4"></path><path d="M474 0L400 96L505 121Z" fill="#8a7445" stroke="#8a7445"></path><path d="M627 600L677 600L662 534Z" fill="#947e52" stroke="#947e52"></path><path d="M769 600L769 507L662 534Z" fill="#8a7445" stroke="#8a7445"></path><path d="M222 139L273 292L335 198Z" fill="#d8cab4" stroke="#d8cab4"></path><path d="M273 292L225 291L266 422Z" fill="#9e8960" stroke="#9e8960"></path><path d="M266 422L222 535L274 484Z" fill="#cebfa5" stroke="#cebfa5"></path><path d="M782 184L689 95L683 161Z" fill="#ebe1d1" stroke="#ebe1d1"></path><path d="M683 161L689 95L591 103Z" fill="#b19e7b" stroke="#b19e7b"></path><path d="M591 103L474 0L505 121Z" fill="#cebfa5" stroke="#cebfa5"></path><path d="M274 484L292 600L408 490Z" fill="#9e8960" stroke="#9e8960"></path><path d="M222 535L292 600L274 484Z" fill="#947e52" stroke="#947e52"></path><path d="M835 272L782 184L722 327Z" fill="#9e8960" stroke="#9e8960"></path><path d="M900 374L835 272L790 411Z" fill="#ebe1d1" stroke="#ebe1d1"></path><path d="M790 411L835 272L722 327Z" fill="#947e52" stroke="#947e52"></path><path d="M120 494L222 535L266 422Z" fill="#ebe1d1" stroke="#ebe1d1"></path><path d="M225 291L165 368L266 422Z" fill="#a7936d" stroke="#a7936d"></path><path d="M677 600L769 600L662 534Z" fill="#a7936d" stroke="#a7936d"></path><path d="M900 506L900 374L790 411Z" fill="#947e52" stroke="#947e52"></path><path d="M608 0L474 0L591 103Z" fill="#947e52" stroke="#947e52"></path><path d="M270 66L222 139L335 198Z" fill="#947e52" stroke="#947e52"></path><path d="M270 66L335 198L400 96Z" fill="#cebfa5" stroke="#cebfa5"></path><path d="M225 291L114 275L165 368Z" fill="#9e8960" stroke="#9e8960"></path><path d="M222 535L228 600L292 600Z" fill="#ebe1d1" stroke="#ebe1d1"></path><path d="M132 600L228 600L222 535Z" fill="#d8cab4" stroke="#d8cab4"></path><path d="M689 95L608 0L591 103Z" fill="#e1d6c2" stroke="#e1d6c2"></path><path d="M713 0L608 0L689 95Z" fill="#b19e7b" stroke="#b19e7b"></path><path d="M474 0L403 0L400 96Z" fill="#ebe1d1" stroke="#ebe1d1"></path><path d="M329 0L270 66L400 96Z" fill="#b19e7b" stroke="#b19e7b"></path><path d="M74 177L180 172L102 82Z" fill="#bba989" stroke="#bba989"></path><path d="M222 139L180 172L225 291Z" fill="#ebe1d1" stroke="#ebe1d1"></path><path d="M900 506L790 411L769 507Z" fill="#e1d6c2" stroke="#e1d6c2"></path><path d="M900 177L826 114L782 184Z" fill="#d8cab4" stroke="#d8cab4"></path><path d="M900 177L782 184L835 272Z" fill="#d8cab4" stroke="#d8cab4"></path><path d="M782 184L826 114L689 95Z" fill="#cebfa5" stroke="#cebfa5"></path><path d="M900 374L900 263L835 272Z" fill="#e1d6c2" stroke="#e1d6c2"></path><path d="M403 0L329 0L400 96Z" fill="#cebfa5" stroke="#cebfa5"></path><path d="M180 172L114 275L225 291Z" fill="#9e8960" stroke="#9e8960"></path><path d="M165 368L120 494L266 422Z" fill="#a7936d" stroke="#a7936d"></path><path d="M82 388L120 494L165 368Z" fill="#947e52" stroke="#947e52"></path><path d="M900 600L900 506L769 507Z" fill="#bba989" stroke="#bba989"></path><path d="M797 0L713 0L689 95Z" fill="#9e8960" stroke="#9e8960"></path><path d="M900 263L900 177L835 272Z" fill="#8a7445" stroke="#8a7445"></path><path d="M826 114L797 0L689 95Z" fill="#c5b497" stroke="#c5b497"></path><path d="M114 275L82 388L165 368Z" fill="#d8cab4" stroke="#d8cab4"></path><path d="M0 512L132 600L120 494Z" fill="#ebe1d1" stroke="#ebe1d1"></path><path d="M120 494L132 600L222 535Z" fill="#c5b497" stroke="#c5b497"></path><path d="M769 600L900 600L769 507Z" fill="#bba989" stroke="#bba989"></path><path d="M900 71L797 0L826 114Z" fill="#bba989" stroke="#bba989"></path><path d="M180 172L74 177L114 275Z" fill="#a7936d" stroke="#a7936d"></path><path d="M0 326L0 385L82 388Z" fill="#bba989" stroke="#bba989"></path><path d="M102 82L180 172L222 139Z" fill="#b19e7b" stroke="#b19e7b"></path><path d="M102 82L222 139L160 0Z" fill="#d8cab4" stroke="#d8cab4"></path><path d="M900 177L900 71L826 114Z" fill="#cebfa5" stroke="#cebfa5"></path><path d="M160 0L222 139L270 66Z" fill="#9e8960" stroke="#9e8960"></path><path d="M329 0L160 0L270 66Z" fill="#c5b497" stroke="#c5b497"></path><path d="M0 326L82 388L114 275Z" fill="#e1d6c2" stroke="#e1d6c2"></path><path d="M82 388L0 512L120 494Z" fill="#947e52" stroke="#947e52"></path><path d="M0 326L114 275L0 211Z" fill="#8a7445" stroke="#8a7445"></path><path d="M0 211L114 275L74 177Z" fill="#9e8960" stroke="#9e8960"></path><path d="M900 71L900 0L797 0Z" fill="#e1d6c2" stroke="#e1d6c2"></path><path d="M0 385L0 512L82 388Z" fill="#9e8960" stroke="#9e8960"></path><path d="M0 127L74 177L102 82Z" fill="#9e8960" stroke="#9e8960"></path><path d="M0 127L0 211L74 177Z" fill="#d8cab4" stroke="#d8cab4"></path><path d="M160 0L109 0L102 82Z" fill="#947e52" stroke="#947e52"></path><path d="M0 0L0 127L102 82Z" fill="#9e8960" stroke="#9e8960"></path><path d="M0 512L0 600L132 600Z" fill="#bba989" stroke="#bba989"></path><path d="M109 0L0 0L102 82Z" fill="#8a7445" stroke="#8a7445"></path></g></svg>