<svg id="visual" viewBox="0 0 900 600" width="900" height="600" xmlns="http://www.w3.org/2000/svg" xmlns:xlink="http://www.w3.org/1999/xlink" version="1.1"><g stroke-width="1" stroke-linejoin="bevel"><path d="M523.3 338L523.3 491L619.9 355Z" fill="#8f9468" stroke="#8f9468"></path><path d="M523.3 491L644.9 458L619.9 355Z" fill="#f9fbe7" stroke="#f9fbe7"></path><path d="M523.3 338L406.7 484L523.3 491Z" fill="#aeb28d" stroke="#aeb28d"></path><path d="M406.7 484L509.3 600L523.3 491Z" fill="#d8dbc0" stroke="#d8dbc0"></path><path d="M523.3 491L660.9 600L644.9 458Z" fill="#8f9468" stroke="#8f9468"></path><path d="M523.3 338L362.7 381L406.7 484Z" fill="#ced0b3" stroke="#ced0b3"></path><path d="M664.9 235L499.3 221L523.3 338Z" fill="#999e74" stroke="#999e74"></path><path d="M523.3 338L374.7 255L362.7 381Z" fill="#a4a880" stroke="#a4a880"></path><path d="M660.9 600L751.4 494L644.9 458Z" fill="#aeb28d" stroke="#aeb28d"></path><path d="M644.9 458L772.4 364L619.9 355Z" fill="#8f9468" stroke="#8f9468"></path><path d="M619.9 355L664.9 235L523.3 338Z" fill="#999e74" stroke="#999e74"></path><path d="M772.4 364L664.9 235L619.9 355Z" fill="#a4a880" stroke="#a4a880"></path><path d="M509.3 600L660.9 600L523.3 491Z" fill="#aeb28d" stroke="#aeb28d"></path><path d="M751.4 494L772.4 364L644.9 458Z" fill="#f9fbe7" stroke="#f9fbe7"></path><path d="M499.3 221L374.7 255L523.3 338Z" fill="#8f9468" stroke="#8f9468"></path><path d="M265.1 488L391.7 600L406.7 484Z" fill="#b8bc99" stroke="#b8bc99"></path><path d="M406.7 484L391.7 600L509.3 600Z" fill="#ced0b3" stroke="#ced0b3"></path><path d="M660.9 600L759.4 600L751.4 494Z" fill="#d8dbc0" stroke="#d8dbc0"></path><path d="M900 473L900 364L772.4 364Z" fill="#ced0b3" stroke="#ced0b3"></path><path d="M772.4 364L762.4 226L664.9 235Z" fill="#b8bc99" stroke="#b8bc99"></path><path d="M664.9 235L664.9 131L499.3 221Z" fill="#b8bc99" stroke="#b8bc99"></path><path d="M748.4 133L664.9 131L664.9 235Z" fill="#8f9468" stroke="#8f9468"></path><path d="M499.3 221L371.7 122L374.7 255Z" fill="#eef0da" stroke="#eef0da"></path><path d="M664.9 131L520.3 114L499.3 221Z" fill="#b8bc99" stroke="#b8bc99"></path><path d="M362.7 381L265.1 488L406.7 484Z" fill="#e3e6cd" stroke="#e3e6cd"></path><path d="M245.1 353L265.1 488L362.7 381Z" fill="#ced0b3" stroke="#ced0b3"></path><path d="M250.1 233L245.1 353L374.7 255Z" fill="#d8dbc0" stroke="#d8dbc0"></path><path d="M374.7 255L245.1 353L362.7 381Z" fill="#c3c6a6" stroke="#c3c6a6"></path><path d="M148.6 498L277.1 600L265.1 488Z" fill="#c3c6a6" stroke="#c3c6a6"></path><path d="M265.1 488L277.1 600L391.7 600Z" fill="#f9fbe7" stroke="#f9fbe7"></path><path d="M762.4 226L748.4 133L664.9 235Z" fill="#ced0b3" stroke="#ced0b3"></path><path d="M664.9 0L526.3 0L520.3 114Z" fill="#e3e6cd" stroke="#e3e6cd"></path><path d="M900 473L772.4 364L751.4 494Z" fill="#a4a880" stroke="#a4a880"></path><path d="M772.4 364L900 233L762.4 226Z" fill="#c3c6a6" stroke="#c3c6a6"></path><path d="M762.4 226L900 126L748.4 133Z" fill="#eef0da" stroke="#eef0da"></path><path d="M900 600L900 473L751.4 494Z" fill="#d8dbc0" stroke="#d8dbc0"></path><path d="M520.3 114L371.7 122L499.3 221Z" fill="#8f9468" stroke="#8f9468"></path><path d="M371.7 122L250.1 233L374.7 255Z" fill="#c3c6a6" stroke="#c3c6a6"></path><path d="M900 364L900 233L772.4 364Z" fill="#aeb28d" stroke="#aeb28d"></path><path d="M759.4 600L900 600L751.4 494Z" fill="#999e74" stroke="#999e74"></path><path d="M250.1 233L148.6 353L245.1 353Z" fill="#eef0da" stroke="#eef0da"></path><path d="M245.1 353L148.6 498L265.1 488Z" fill="#c3c6a6" stroke="#c3c6a6"></path><path d="M520.3 114L376.7 0L371.7 122Z" fill="#aeb28d" stroke="#aeb28d"></path><path d="M664.9 0L520.3 114L664.9 131Z" fill="#999e74" stroke="#999e74"></path><path d="M148.6 353L148.6 498L245.1 353Z" fill="#8f9468" stroke="#8f9468"></path><path d="M250.1 233L134.6 238L148.6 353Z" fill="#ced0b3" stroke="#ced0b3"></path><path d="M371.7 122L242.1 135L250.1 233Z" fill="#f9fbe7" stroke="#f9fbe7"></path><path d="M248.1 0L242.1 135L371.7 122Z" fill="#8f9468" stroke="#8f9468"></path><path d="M784.4 0L664.9 0L748.4 133Z" fill="#f9fbe7" stroke="#f9fbe7"></path><path d="M748.4 133L664.9 0L664.9 131Z" fill="#999e74" stroke="#999e74"></path><path d="M900 233L900 126L762.4 226Z" fill="#f9fbe7" stroke="#f9fbe7"></path><path d="M526.3 0L376.7 0L520.3 114Z" fill="#eef0da" stroke="#eef0da"></path><path d="M0 600L145.6 600L148.6 498Z" fill="#b8bc99" stroke="#b8bc99"></path><path d="M148.6 498L145.6 600L277.1 600Z" fill="#a4a880" stroke="#a4a880"></path><path d="M242.1 135L134.6 238L250.1 233Z" fill="#b8bc99" stroke="#b8bc99"></path><path d="M148.6 353L0 476L148.6 498Z" fill="#eef0da" stroke="#eef0da"></path><path d="M136.6 128L134.6 238L242.1 135Z" fill="#e3e6cd" stroke="#e3e6cd"></path><path d="M900 126L784.4 0L748.4 133Z" fill="#c3c6a6" stroke="#c3c6a6"></path><path d="M248.1 0L136.6 128L242.1 135Z" fill="#d8dbc0" stroke="#d8dbc0"></path><path d="M376.7 0L248.1 0L371.7 122Z" fill="#aeb28d" stroke="#aeb28d"></path><path d="M900 126L900 0L784.4 0Z" fill="#c3c6a6" stroke="#c3c6a6"></path><path d="M0 338L0 476L148.6 353Z" fill="#d8dbc0" stroke="#d8dbc0"></path><path d="M0 338L148.6 353L134.6 238Z" fill="#b8bc99" stroke="#b8bc99"></path><path d="M0 222L0 338L134.6 238Z" fill="#f9fbe7" stroke="#f9fbe7"></path><path d="M0 476L0 600L148.6 498Z" fill="#ced0b3" stroke="#ced0b3"></path><path d="M0 99L0 222L136.6 128Z" fill="#c3c6a6" stroke="#c3c6a6"></path><path d="M136.6 128L0 222L134.6 238Z" fill="#a4a880" stroke="#a4a880"></path><path d="M248.1 0L116.6 0L136.6 128Z" fill="#eef0da" stroke="#eef0da"></path><path d="M116.6 0L0 99L136.6 128Z" fill="#aeb28d" stroke="#aeb28d"></path><path d="M116.6 0L0 0L0 99Z" fill="#b8bc99" stroke="#b8bc99"></path></g></svg>