<svg id="visual" viewBox="0 0 900 600" width="900" height="600" xmlns="http://www.w3.org/2000/svg" xmlns:xlink="http://www.w3.org/1999/xlink" version="1.1"><g stroke-width="1" stroke-linejoin="bevel"><path d="M469 303L502 227L377 280Z" fill="#d6d7d8" stroke="#d6d7d8"></path><path d="M502 227L364 225L377 280Z" fill="#cccccc" stroke="#cccccc"></path><path d="M364 225L315 234L377 280Z" fill="#dfe2e4" stroke="#dfe2e4"></path><path d="M315 234L295 266L377 280Z" fill="#e3e6e8" stroke="#e3e6e8"></path><path d="M377 280L414 386L469 303Z" fill="#edf1f4" stroke="#edf1f4"></path><path d="M319 395L414 386L377 280Z" fill="#dcdee0" stroke="#dcdee0"></path><path d="M502 227L402 101L364 225Z" fill="#e3e6e8" stroke="#e3e6e8"></path><path d="M364 225L308 124L315 234Z" fill="#eaedf0" stroke="#eaedf0"></path><path d="M502 227L499 101L402 101Z" fill="#d9dadc" stroke="#d9dadc"></path><path d="M631 265L584 174L502 227Z" fill="#edf1f4" stroke="#edf1f4"></path><path d="M502 227L584 174L499 101Z" fill="#cccccc" stroke="#cccccc"></path><path d="M631 265L502 227L469 303Z" fill="#edf1f4" stroke="#edf1f4"></path><path d="M414 386L494 400L469 303Z" fill="#edf1f4" stroke="#edf1f4"></path><path d="M402 101L308 124L364 225Z" fill="#cccccc" stroke="#cccccc"></path><path d="M174 160L227 301L295 266Z" fill="#dfe2e4" stroke="#dfe2e4"></path><path d="M295 266L319 395L377 280Z" fill="#dfe2e4" stroke="#dfe2e4"></path><path d="M414 386L485 467L494 400Z" fill="#edf1f4" stroke="#edf1f4"></path><path d="M494 400L578 378L469 303Z" fill="#dfe2e4" stroke="#dfe2e4"></path><path d="M578 378L631 265L469 303Z" fill="#cccccc" stroke="#cccccc"></path><path d="M174 160L295 266L315 234Z" fill="#d9dadc" stroke="#d9dadc"></path><path d="M295 266L227 301L319 395Z" fill="#e6e9ec" stroke="#e6e9ec"></path><path d="M391 501L485 467L414 386Z" fill="#dcdee0" stroke="#dcdee0"></path><path d="M494 400L574 487L578 378Z" fill="#d9dadc" stroke="#d9dadc"></path><path d="M701 181L631 112L584 174Z" fill="#d2d3d4" stroke="#d2d3d4"></path><path d="M584 174L631 112L499 101Z" fill="#edf1f4" stroke="#edf1f4"></path><path d="M402 101L337 0L308 124Z" fill="#d2d3d4" stroke="#d2d3d4"></path><path d="M500 0L389 0L402 101Z" fill="#edf1f4" stroke="#edf1f4"></path><path d="M500 0L402 101L499 101Z" fill="#edf1f4" stroke="#edf1f4"></path><path d="M623 0L500 0L499 101Z" fill="#e3e6e8" stroke="#e3e6e8"></path><path d="M265 530L391 501L319 395Z" fill="#cccccc" stroke="#cccccc"></path><path d="M319 395L391 501L414 386Z" fill="#dcdee0" stroke="#dcdee0"></path><path d="M389 0L337 0L402 101Z" fill="#cfd0d0" stroke="#cfd0d0"></path><path d="M308 124L174 160L315 234Z" fill="#dcdee0" stroke="#dcdee0"></path><path d="M337 0L210 104L308 124Z" fill="#d9dadc" stroke="#d9dadc"></path><path d="M718 317L701 181L631 265Z" fill="#cfd0d0" stroke="#cfd0d0"></path><path d="M631 265L701 181L584 174Z" fill="#eaedf0" stroke="#eaedf0"></path><path d="M210 104L174 160L308 124Z" fill="#cfd0d0" stroke="#cfd0d0"></path><path d="M485 467L574 487L494 400Z" fill="#d2d3d4" stroke="#d2d3d4"></path><path d="M578 378L675 405L631 265Z" fill="#d9dadc" stroke="#d9dadc"></path><path d="M535 600L574 487L485 467Z" fill="#dcdee0" stroke="#dcdee0"></path><path d="M574 487L675 405L578 378Z" fill="#e3e6e8" stroke="#e3e6e8"></path><path d="M675 405L718 317L631 265Z" fill="#eaedf0" stroke="#eaedf0"></path><path d="M132 308L172 401L227 301Z" fill="#cccccc" stroke="#cccccc"></path><path d="M227 301L172 401L319 395Z" fill="#e3e6e8" stroke="#e3e6e8"></path><path d="M681 0L623 0L631 112Z" fill="#d9dadc" stroke="#d9dadc"></path><path d="M631 112L623 0L499 101Z" fill="#d9dadc" stroke="#d9dadc"></path><path d="M174 160L132 308L227 301Z" fill="#e6e9ec" stroke="#e6e9ec"></path><path d="M701 181L729 132L631 112Z" fill="#eaedf0" stroke="#eaedf0"></path><path d="M782 228L729 132L701 181Z" fill="#edf1f4" stroke="#edf1f4"></path><path d="M199 483L265 530L319 395Z" fill="#dfe2e4" stroke="#dfe2e4"></path><path d="M391 501L535 600L485 467Z" fill="#dcdee0" stroke="#dcdee0"></path><path d="M172 401L199 483L319 395Z" fill="#eaedf0" stroke="#eaedf0"></path><path d="M84 435L199 483L172 401Z" fill="#dcdee0" stroke="#dcdee0"></path><path d="M128 68L99 173L174 160Z" fill="#e6e9ec" stroke="#e6e9ec"></path><path d="M174 160L99 173L132 308Z" fill="#e6e9ec" stroke="#e6e9ec"></path><path d="M128 68L174 160L210 104Z" fill="#cfd0d0" stroke="#cfd0d0"></path><path d="M729 132L681 0L631 112Z" fill="#edf1f4" stroke="#edf1f4"></path><path d="M782 303L782 228L718 317Z" fill="#cfd0d0" stroke="#cfd0d0"></path><path d="M718 317L782 228L701 181Z" fill="#d6d7d8" stroke="#d6d7d8"></path><path d="M729 132L782 76L681 0Z" fill="#dfe2e4" stroke="#dfe2e4"></path><path d="M778 367L782 303L718 317Z" fill="#dfe2e4" stroke="#dfe2e4"></path><path d="M574 487L714 460L675 405Z" fill="#dfe2e4" stroke="#dfe2e4"></path><path d="M675 405L778 367L718 317Z" fill="#eaedf0" stroke="#eaedf0"></path><path d="M166 0L128 68L210 104Z" fill="#e6e9ec" stroke="#e6e9ec"></path><path d="M339 600L387 600L391 501Z" fill="#d2d3d4" stroke="#d2d3d4"></path><path d="M574 487L679 600L714 460Z" fill="#d2d3d4" stroke="#d2d3d4"></path><path d="M337 0L166 0L210 104Z" fill="#cfd0d0" stroke="#cfd0d0"></path><path d="M714 460L778 367L675 405Z" fill="#e6e9ec" stroke="#e6e9ec"></path><path d="M229 600L339 600L265 530Z" fill="#eaedf0" stroke="#eaedf0"></path><path d="M265 530L339 600L391 501Z" fill="#dcdee0" stroke="#dcdee0"></path><path d="M387 600L535 600L391 501Z" fill="#d2d3d4" stroke="#d2d3d4"></path><path d="M782 228L782 76L729 132Z" fill="#d6d7d8" stroke="#d6d7d8"></path><path d="M535 600L601 600L574 487Z" fill="#dcdee0" stroke="#dcdee0"></path><path d="M0 309L84 435L132 308Z" fill="#eaedf0" stroke="#eaedf0"></path><path d="M132 308L84 435L172 401Z" fill="#eaedf0" stroke="#eaedf0"></path><path d="M199 483L229 600L265 530Z" fill="#edf1f4" stroke="#edf1f4"></path><path d="M90 506L229 600L199 483Z" fill="#e6e9ec" stroke="#e6e9ec"></path><path d="M0 73L0 186L99 173Z" fill="#e6e9ec" stroke="#e6e9ec"></path><path d="M99 173L0 309L132 308Z" fill="#e3e6e8" stroke="#e3e6e8"></path><path d="M166 0L98 0L128 68Z" fill="#cfd0d0" stroke="#cfd0d0"></path><path d="M679 600L775 509L714 460Z" fill="#e3e6e8" stroke="#e3e6e8"></path><path d="M714 460L775 509L778 367Z" fill="#d9dadc" stroke="#d9dadc"></path><path d="M900 283L782 228L782 303Z" fill="#e6e9ec" stroke="#e6e9ec"></path><path d="M601 600L679 600L574 487Z" fill="#d2d3d4" stroke="#d2d3d4"></path><path d="M84 435L90 506L199 483Z" fill="#edf1f4" stroke="#edf1f4"></path><path d="M0 73L99 173L128 68Z" fill="#d9dadc" stroke="#d9dadc"></path><path d="M84 435L0 488L90 506Z" fill="#eaedf0" stroke="#eaedf0"></path><path d="M0 186L0 309L99 173Z" fill="#dcdee0" stroke="#dcdee0"></path><path d="M900 65L830 0L782 76Z" fill="#dfe2e4" stroke="#dfe2e4"></path><path d="M782 76L830 0L681 0Z" fill="#d2d3d4" stroke="#d2d3d4"></path><path d="M900 201L782 76L782 228Z" fill="#edf1f4" stroke="#edf1f4"></path><path d="M900 283L782 303L900 363Z" fill="#e6e9ec" stroke="#e6e9ec"></path><path d="M0 309L0 410L84 435Z" fill="#dfe2e4" stroke="#dfe2e4"></path><path d="M900 363L782 303L778 367Z" fill="#d2d3d4" stroke="#d2d3d4"></path><path d="M900 283L900 201L782 228Z" fill="#d2d3d4" stroke="#d2d3d4"></path><path d="M98 0L0 73L128 68Z" fill="#d6d7d8" stroke="#d6d7d8"></path><path d="M900 511L900 363L778 367Z" fill="#d6d7d8" stroke="#d6d7d8"></path><path d="M900 201L900 65L782 76Z" fill="#dcdee0" stroke="#dcdee0"></path><path d="M98 0L0 0L0 73Z" fill="#cfd0d0" stroke="#cfd0d0"></path><path d="M0 410L0 488L84 435Z" fill="#cfd0d0" stroke="#cfd0d0"></path><path d="M90 506L73 600L229 600Z" fill="#edf1f4" stroke="#edf1f4"></path><path d="M679 600L785 600L775 509Z" fill="#d6d7d8" stroke="#d6d7d8"></path><path d="M775 509L900 511L778 367Z" fill="#eaedf0" stroke="#eaedf0"></path><path d="M0 600L73 600L90 506Z" fill="#e6e9ec" stroke="#e6e9ec"></path><path d="M900 65L900 0L830 0Z" fill="#cccccc" stroke="#cccccc"></path><path d="M785 600L900 511L775 509Z" fill="#cccccc" stroke="#cccccc"></path><path d="M0 488L0 600L90 506Z" fill="#eaedf0" stroke="#eaedf0"></path><path d="M785 600L900 600L900 511Z" fill="#cfd0d0" stroke="#cfd0d0"></path></g></svg>