<svg id="visual" viewBox="0 0 900 600" width="900" height="600" xmlns="http://www.w3.org/2000/svg" xmlns:xlink="http://www.w3.org/1999/xlink" version="1.1"><path d="M0 133L13.7 131C27.3 129 54.7 125 82 115C109.3 105 136.7 89 163.8 99C191 109 218 145 245.2 159C272.3 173 299.7 165 327 166C354.3 167 381.7 177 409 171C436.3 165 463.7 143 491 131C518.3 119 545.7 117 573 111C600.3 105 627.7 95 654.8 83C682 71 709 57 736.2 66C763.3 75 790.7 107 818 115C845.3 123 872.7 107 886.3 99L900 91L900 0L886.3 0C872.7 0 845.3 0 818 0C790.7 0 763.3 0 736.2 0C709 0 682 0 654.8 0C627.7 0 600.3 0 573 0C545.7 0 518.3 0 491 0C463.7 0 436.3 0 409 0C381.7 0 354.3 0 327 0C299.7 0 272.3 0 245.2 0C218 0 191 0 163.8 0C136.7 0 109.3 0 82 0C54.7 0 27.3 0 13.7 0L0 0Z" fill="#778f05"></path><path d="M0 247L13.7 243C27.3 239 54.7 231 82 205C109.3 179 136.7 135 163.8 139C191 143 218 195 245.2 218C272.3 241 299.7 235 327 252C354.3 269 381.7 309 409 314C436.3 319 463.7 289 491 273C518.3 257 545.7 255 573 258C600.3 261 627.7 269 654.8 258C682 247 709 217 736.2 212C763.3 207 790.7 227 818 216C845.3 205 872.7 163 886.3 142L900 121L900 89L886.3 97C872.7 105 845.3 121 818 113C790.7 105 763.3 73 736.2 64C709 55 682 69 654.8 81C627.7 93 600.3 103 573 109C545.7 115 518.3 117 491 129C463.7 141 436.3 163 409 169C381.7 175 354.3 165 327 164C299.7 163 272.3 171 245.2 157C218 143 191 107 163.8 97C136.7 87 109.3 103 82 113C54.7 123 27.3 127 13.7 129L0 131Z" fill="#a3c401"></path><path d="M0 367L13.7 367C27.3 367 54.7 367 82 361C109.3 355 136.7 343 163.8 354C191 365 218 399 245.2 401C272.3 403 299.7 373 327 373C354.3 373 381.7 403 409 407C436.3 411 463.7 389 491 381C518.3 373 545.7 379 573 399C600.3 419 627.7 453 654.8 452C682 451 709 415 736.2 411C763.3 407 790.7 435 818 449C845.3 463 872.7 463 886.3 463L900 463L900 119L886.3 140C872.7 161 845.3 203 818 214C790.7 225 763.3 205 736.2 210C709 215 682 245 654.8 256C627.7 267 600.3 259 573 256C545.7 253 518.3 255 491 271C463.7 287 436.3 317 409 312C381.7 307 354.3 267 327 250C299.7 233 272.3 239 245.2 216C218 193 191 141 163.8 137C136.7 133 109.3 177 82 203C54.7 229 27.3 237 13.7 241L0 245Z" fill="#bed74f"></path><path d="M0 469L13.7 454C27.3 439 54.7 409 82 402C109.3 395 136.7 411 163.8 430C191 449 218 471 245.2 465C272.3 459 299.7 425 327 430C354.3 435 381.7 479 409 491C436.3 503 463.7 483 491 470C518.3 457 545.7 451 573 460C600.3 469 627.7 493 654.8 491C682 489 709 461 736.2 456C763.3 451 790.7 469 818 489C845.3 509 872.7 531 886.3 542L900 553L900 461L886.3 461C872.7 461 845.3 461 818 447C790.7 433 763.3 405 736.2 409C709 413 682 449 654.8 450C627.7 451 600.3 417 573 397C545.7 377 518.3 371 491 379C463.7 387 436.3 409 409 405C381.7 401 354.3 371 327 371C299.7 371 272.3 401 245.2 399C218 397 191 363 163.8 352C136.7 341 109.3 353 82 359C54.7 365 27.3 365 13.7 365L0 365Z" fill="#bed74f"></path><path d="M0 499L13.7 495C27.3 491 54.7 483 82 486C109.3 489 136.7 503 163.8 516C191 529 218 541 245.2 542C272.3 543 299.7 533 327 532C354.3 531 381.7 539 409 538C436.3 537 463.7 527 491 524C518.3 521 545.7 525 573 535C600.3 545 627.7 561 654.8 559C682 557 709 537 736.2 532C763.3 527 790.7 537 818 546C845.3 555 872.7 563 886.3 567L900 571L900 551L886.3 540C872.7 529 845.3 507 818 487C790.7 467 763.3 449 736.2 454C709 459 682 487 654.8 489C627.7 491 600.3 467 573 458C545.7 449 518.3 455 491 468C463.7 481 436.3 501 409 489C381.7 477 354.3 433 327 428C299.7 423 272.3 457 245.2 463C218 469 191 447 163.8 428C136.7 409 109.3 393 82 400C54.7 407 27.3 437 13.7 452L0 467Z" fill="#a3c401"></path><path d="M0 601L13.7 601C27.3 601 54.7 601 82 601C109.3 601 136.7 601 163.8 601C191 601 218 601 245.2 601C272.3 601 299.7 601 327 601C354.3 601 381.7 601 409 601C436.3 601 463.7 601 491 601C518.3 601 545.7 601 573 601C600.3 601 627.7 601 654.8 601C682 601 709 601 736.2 601C763.3 601 790.7 601 818 601C845.3 601 872.7 601 886.3 601L900 601L900 569L886.3 565C872.7 561 845.3 553 818 544C790.7 535 763.3 525 736.2 530C709 535 682 555 654.8 557C627.7 559 600.3 543 573 533C545.7 523 518.3 519 491 522C463.7 525 436.3 535 409 536C381.7 537 354.3 529 327 530C299.7 531 272.3 541 245.2 540C218 539 191 527 163.8 514C136.7 501 109.3 487 82 484C54.7 481 27.3 489 13.7 493L0 497Z" fill="#778f05"></path></svg>